<svg width="21" height="25" viewBox="0 0 21 25" fill="none" xmlns="http://www.w3.org/2000/svg">
<path d="M16.4671 6.74451C15.5424 6.74451 14.6178 6.74451 13.6945 6.74451C12.9256 6.74451 12.4867 6.30376 12.4852 5.53638C12.4852 4.38579 12.4852 3.23472 12.4852 2.08318V1.76224C12.3705 1.76224 12.2799 1.74941 12.1907 1.74941C9.18311 1.74941 6.17551 1.75939 3.16791 1.74941C2.98018 1.73988 2.79255 1.76997 2.61704 1.83774C2.44153 1.9055 2.28201 2.00946 2.1487 2.14293C2.01539 2.27641 1.91123 2.43647 1.8429 2.61285C1.77457 2.78924 1.74358 2.97805 1.7519 3.16721C1.77031 8.87263 1.76181 14.5781 1.76323 20.2835C1.74869 20.5739 1.83586 20.8602 2.00951 21.0925C2.18316 21.3248 2.43227 21.4882 2.71337 21.5544C2.83569 21.5808 2.96073 21.5923 3.08578 21.5886H9.94209C10.017 21.5814 10.0924 21.5814 10.1672 21.5886C10.2592 21.6 10.3438 21.6448 10.4052 21.7147C10.4666 21.7846 10.5005 21.8747 10.5005 21.968C10.5005 22.0613 10.4666 22.1514 10.4052 22.2213C10.3438 22.2912 10.2592 22.336 10.1672 22.3474C10.1004 22.3539 10.033 22.3539 9.96616 22.3474H3.09003C1.86235 22.3431 1 21.4731 1 20.2378C1 14.5324 1 8.82699 1 3.12156C1 1.86494 1.8312 1.00628 3.07162 1.00342C6.29729 0.997718 9.52295 0.999144 12.7486 1.0077C12.9195 1.01507 13.0824 1.08272 13.2088 1.19883C14.8136 2.7935 16.4057 4.3972 17.985 6.00993C18.1056 6.14356 18.1753 6.31587 18.1818 6.49632C18.1946 8.98389 18.1903 11.4715 18.1903 13.959C18.1949 14.0354 18.1902 14.112 18.1762 14.1872C18.1695 14.2337 18.1536 14.2783 18.1296 14.3185C18.1056 14.3587 18.0739 14.3937 18.0364 14.4214C17.9988 14.4491 17.9561 14.4691 17.9109 14.4801C17.8656 14.491 17.8186 14.4928 17.7726 14.4853C17.6827 14.4831 17.5972 14.4457 17.5343 14.3809C17.4713 14.3162 17.4359 14.2293 17.4356 14.1387C17.4214 13.9961 17.4356 13.8349 17.4356 13.6823V6.74451H16.4671ZM13.2485 2.38699C13.241 2.43422 13.2363 2.48185 13.2343 2.52962C13.2343 3.51857 13.2343 4.50703 13.2343 5.49502C13.2343 5.86159 13.3533 5.97713 13.7158 5.97855H16.8239L13.2485 2.38699Z" fill="#484848"/>
<path d="M10.7393 17.1355C10.7393 16.8645 10.7237 16.5935 10.7393 16.3239C10.7634 15.9887 10.8937 15.8789 11.2307 15.896C11.9472 15.9203 12.6566 15.896 13.3462 15.6664C13.9839 15.4585 14.5549 15.0828 15.0001 14.5781C15.2054 14.3498 15.4419 14.3213 15.6274 14.531C16.5662 15.5993 17.7854 15.9302 19.1433 15.8974C19.8711 15.8803 19.9094 15.8974 19.9533 16.6391C20.1487 19.934 18.5089 22.5614 15.6684 23.885C15.5676 23.9353 15.4567 23.9615 15.3442 23.9615C15.2317 23.9615 15.1207 23.9353 15.0199 23.885C12.3281 22.7111 10.694 20.1537 10.7393 17.1355ZM11.4884 16.672C11.4884 17.0428 11.4643 17.3965 11.4884 17.7474C11.6894 20.215 12.9454 21.9666 15.0992 23.1034C15.17 23.1454 15.2507 23.1676 15.3328 23.1676C15.415 23.1676 15.4957 23.1454 15.5665 23.1034C17.7372 21.9937 18.9649 20.2293 19.1773 17.7802C19.2099 17.4151 19.1773 17.0457 19.1773 16.6691C17.7146 16.6848 16.3934 16.3767 15.3187 15.3355C14.2524 16.3867 12.9242 16.672 11.4884 16.672Z" fill="#484848"/>
<path d="M12.0604 9.40609C11.0367 9.40609 10.0115 9.40609 8.9877 9.40609C8.78663 9.40609 8.61388 9.33049 8.59547 9.13223C8.5971 8.9814 8.65236 8.83616 8.75123 8.72287C8.80221 8.65868 8.95089 8.65725 9.05567 8.65725C9.61075 8.65725 10.1644 8.65725 10.7181 8.65725H15.0001C15.0666 8.65725 15.1417 8.65725 15.2011 8.65725C15.2987 8.65975 15.3915 8.69968 15.4608 8.76889C15.53 8.8381 15.5703 8.93134 15.5736 9.02953C15.5729 9.07985 15.5621 9.12951 15.5419 9.17554C15.5217 9.22156 15.4924 9.263 15.4559 9.29736C15.4194 9.33173 15.3764 9.35832 15.3295 9.37553C15.2825 9.39274 15.2326 9.40023 15.1827 9.39753C14.6163 9.39753 14.0584 9.39753 13.4963 9.39753L12.0604 9.40609Z" fill="#484848"/>
<path d="M10.2196 11.8095C10.3142 11.804 10.4091 11.8083 10.5028 11.8223C10.5842 11.8403 10.6571 11.8854 10.7098 11.9503C10.7625 12.0153 10.7919 12.0962 10.7932 12.1801C10.7945 12.264 10.7677 12.3458 10.717 12.4124C10.6664 12.479 10.5949 12.5264 10.5142 12.5469C10.4315 12.5615 10.3474 12.5668 10.2635 12.5626H4.17469C4.09093 12.5662 4.00702 12.5619 3.92406 12.5498C3.83933 12.5387 3.76198 12.4955 3.70778 12.429C3.65358 12.3625 3.6266 12.2776 3.63236 12.1918C3.62539 12.104 3.65201 12.0168 3.70676 11.9481C3.76152 11.8794 3.84027 11.8344 3.92689 11.8223C4.01048 11.8119 4.09479 11.8085 4.17894 11.8124L10.2196 11.8095Z" fill="#484848"/>
<path d="M9.24542 14.9675C9.54561 14.9675 9.70562 15.1015 9.70562 15.3454C9.70562 15.5893 9.54561 15.7191 9.26524 15.7191C7.52827 15.7191 5.7913 15.7191 4.05433 15.7191C3.77113 15.7191 3.61962 15.5765 3.61962 15.3397C3.61962 15.103 3.78246 14.9675 4.05999 14.966L9.24542 14.9675Z" fill="#484848"/>
<path d="M6.47429 18.1183C7.25451 18.1183 8.0319 18.1183 8.81353 18.1183C9.12364 18.1183 9.27657 18.2424 9.28082 18.4891C9.28506 18.7359 9.13922 18.8785 8.83194 18.8785C7.2394 18.8785 5.64592 18.8785 4.0515 18.8785C3.84901 18.8785 3.65926 18.8086 3.64086 18.5933C3.64831 18.4419 3.7056 18.2974 3.8037 18.1825C3.84759 18.124 3.98778 18.1211 4.0869 18.1211C4.88411 18.1211 5.68132 18.1211 6.47712 18.1211L6.47429 18.1183Z" fill="#484848"/>
<path d="M4.9889 9.40609C4.67737 9.40609 4.36727 9.40609 4.05575 9.40609C3.77962 9.40609 3.61678 9.26345 3.61962 9.02953C3.62245 8.79561 3.77113 8.66011 4.03592 8.65725C4.69153 8.65725 5.34715 8.65725 6.00134 8.65725C6.27322 8.65725 6.40915 8.79989 6.40774 9.03524C6.40632 9.27059 6.26614 9.40181 5.99568 9.40466C5.65442 9.40894 5.32449 9.40609 4.9889 9.40609Z" fill="#484848"/>
<path d="M14.2383 12.564C13.9367 12.564 13.635 12.564 13.3334 12.564C13.0701 12.564 12.9256 12.4214 12.927 12.1875C12.9285 11.9536 13.0686 11.8166 13.3377 11.8138C13.9475 11.8081 14.5588 11.8081 15.1714 11.8138C15.221 11.8113 15.2706 11.8187 15.3173 11.8356C15.3641 11.8525 15.407 11.8785 15.4437 11.9122C15.4805 11.9458 15.5102 11.9865 15.5313 12.0318C15.5523 12.0771 15.5643 12.1261 15.5665 12.1761C15.567 12.2288 15.5567 12.2811 15.5362 12.3296C15.5158 12.3782 15.4856 12.4219 15.4476 12.4582C15.4096 12.4945 15.3646 12.5225 15.3153 12.5404C15.2661 12.5584 15.2137 12.566 15.1615 12.5626C14.8585 12.5697 14.5484 12.564 14.2383 12.564Z" fill="#484848"/>
<path d="M16.4671 6.74451C15.5424 6.74451 14.6178 6.74451 13.6945 6.74451C12.9256 6.74451 12.4867 6.30376 12.4852 5.53638C12.4852 4.38579 12.4852 3.23472 12.4852 2.08318V1.76224C12.3705 1.76224 12.2799 1.74941 12.1907 1.74941C9.18311 1.74941 6.17551 1.75939 3.16791 1.74941C2.98018 1.73988 2.79255 1.76997 2.61704 1.83774C2.44153 1.9055 2.28201 2.00946 2.1487 2.14293C2.01539 2.27641 1.91123 2.43647 1.8429 2.61285C1.77457 2.78924 1.74358 2.97805 1.7519 3.16721C1.77031 8.87263 1.76181 14.5781 1.76323 20.2835C1.74869 20.5739 1.83586 20.8602 2.00951 21.0925C2.18316 21.3248 2.43227 21.4882 2.71337 21.5544C2.83569 21.5808 2.96073 21.5923 3.08578 21.5886H9.94209C10.017 21.5814 10.0924 21.5814 10.1672 21.5886C10.2592 21.6 10.3438 21.6448 10.4052 21.7147C10.4666 21.7846 10.5005 21.8747 10.5005 21.968C10.5005 22.0613 10.4666 22.1514 10.4052 22.2213C10.3438 22.2912 10.2592 22.336 10.1672 22.3474C10.1004 22.3539 10.033 22.3539 9.96616 22.3474H3.09003C1.86235 22.3431 1 21.4731 1 20.2378C1 14.5324 1 8.82699 1 3.12156C1 1.86494 1.8312 1.00628 3.07162 1.00342C6.29729 0.997718 9.52295 0.999144 12.7486 1.0077C12.9195 1.01507 13.0824 1.08272 13.2088 1.19883C14.8136 2.7935 16.4057 4.3972 17.985 6.00993C18.1056 6.14356 18.1753 6.31587 18.1818 6.49632C18.1946 8.98389 18.1903 11.4715 18.1903 13.959C18.1949 14.0354 18.1902 14.112 18.1762 14.1872C18.1695 14.2337 18.1536 14.2783 18.1296 14.3185C18.1056 14.3587 18.0739 14.3937 18.0364 14.4214C17.9988 14.4491 17.9561 14.4691 17.9109 14.4801C17.8656 14.491 17.8186 14.4928 17.7726 14.4853C17.6827 14.4831 17.5972 14.4457 17.5343 14.3809C17.4713 14.3162 17.4359 14.2293 17.4356 14.1387C17.4214 13.9961 17.4356 13.8349 17.4356 13.6823V6.74451H16.4671ZM13.2485 2.38699C13.241 2.43422 13.2363 2.48185 13.2343 2.52962C13.2343 3.51857 13.2343 4.50703 13.2343 5.49502C13.2343 5.86159 13.3533 5.97713 13.7158 5.97855H16.8239L13.2485 2.38699Z" stroke="#484848" stroke-width="0.5" stroke-miterlimit="10"/>
<path d="M10.7393 17.1355C10.7393 16.8645 10.7237 16.5935 10.7393 16.3239C10.7634 15.9887 10.8937 15.8789 11.2307 15.896C11.9472 15.9203 12.6566 15.896 13.3462 15.6664C13.9839 15.4585 14.5549 15.0828 15.0001 14.5781C15.2054 14.3498 15.4419 14.3213 15.6274 14.531C16.5662 15.5993 17.7854 15.9302 19.1433 15.8974C19.8711 15.8803 19.9094 15.8974 19.9533 16.6391C20.1487 19.934 18.5089 22.5614 15.6684 23.885C15.5676 23.9353 15.4567 23.9615 15.3442 23.9615C15.2317 23.9615 15.1207 23.9353 15.0199 23.885C12.3281 22.7111 10.694 20.1537 10.7393 17.1355ZM11.4884 16.672C11.4884 17.0428 11.4643 17.3965 11.4884 17.7474C11.6894 20.215 12.9454 21.9666 15.0992 23.1034C15.17 23.1454 15.2507 23.1676 15.3328 23.1676C15.415 23.1676 15.4957 23.1454 15.5665 23.1034C17.7372 21.9937 18.9649 20.2293 19.1773 17.7802C19.2099 17.4151 19.1773 17.0457 19.1773 16.6691C17.7146 16.6848 16.3934 16.3767 15.3187 15.3355C14.2524 16.3867 12.9242 16.672 11.4884 16.672Z" stroke="#484848" stroke-width="0.5" stroke-miterlimit="10"/>
<path d="M12.0604 9.40609C11.0367 9.40609 10.0115 9.40609 8.9877 9.40609C8.78663 9.40609 8.61388 9.33049 8.59547 9.13223C8.5971 8.9814 8.65236 8.83616 8.75123 8.72287C8.80221 8.65868 8.95089 8.65725 9.05567 8.65725C9.61075 8.65725 10.1644 8.65725 10.7181 8.65725H15.0001C15.0666 8.65725 15.1417 8.65725 15.2011 8.65725C15.2987 8.65975 15.3915 8.69968 15.4608 8.76889C15.53 8.8381 15.5703 8.93134 15.5736 9.02953C15.5729 9.07985 15.5621 9.12951 15.5419 9.17554C15.5217 9.22156 15.4924 9.263 15.4559 9.29736C15.4194 9.33173 15.3764 9.35832 15.3295 9.37553C15.2825 9.39274 15.2326 9.40023 15.1827 9.39753C14.6163 9.39753 14.0584 9.39753 13.4963 9.39753L12.0604 9.40609Z" stroke="#484848" stroke-width="0.5" stroke-miterlimit="10"/>
<path d="M10.2196 11.8095C10.3142 11.804 10.4091 11.8083 10.5028 11.8223C10.5842 11.8403 10.6571 11.8854 10.7098 11.9503C10.7625 12.0153 10.7919 12.0962 10.7932 12.1801C10.7945 12.264 10.7677 12.3458 10.717 12.4124C10.6664 12.479 10.5949 12.5264 10.5142 12.5469C10.4315 12.5615 10.3474 12.5668 10.2635 12.5626H4.17469C4.09093 12.5662 4.00702 12.5619 3.92406 12.5498C3.83933 12.5387 3.76198 12.4955 3.70778 12.429C3.65358 12.3625 3.6266 12.2776 3.63236 12.1918C3.62539 12.104 3.65201 12.0168 3.70676 11.9481C3.76152 11.8794 3.84027 11.8344 3.92689 11.8223C4.01048 11.8119 4.09479 11.8085 4.17894 11.8124L10.2196 11.8095Z" stroke="#484848" stroke-width="0.5" stroke-miterlimit="10"/>
<path d="M9.24542 14.9675C9.54561 14.9675 9.70562 15.1015 9.70562 15.3454C9.70562 15.5893 9.54561 15.7191 9.26524 15.7191C7.52827 15.7191 5.7913 15.7191 4.05433 15.7191C3.77113 15.7191 3.61962 15.5765 3.61962 15.3397C3.61962 15.103 3.78246 14.9675 4.05999 14.966L9.24542 14.9675Z" stroke="#484848" stroke-width="0.5" stroke-miterlimit="10"/>
<path d="M6.47429 18.1183C7.25451 18.1183 8.0319 18.1183 8.81353 18.1183C9.12364 18.1183 9.27657 18.2424 9.28082 18.4891C9.28506 18.7359 9.13922 18.8785 8.83194 18.8785C7.2394 18.8785 5.64592 18.8785 4.0515 18.8785C3.84901 18.8785 3.65926 18.8086 3.64086 18.5933C3.64831 18.4419 3.7056 18.2974 3.8037 18.1825C3.84759 18.124 3.98778 18.1211 4.0869 18.1211C4.88411 18.1211 5.68132 18.1211 6.47712 18.1211L6.47429 18.1183Z" stroke="#484848" stroke-width="0.5" stroke-miterlimit="10"/>
<path d="M4.9889 9.40609C4.67737 9.40609 4.36727 9.40609 4.05575 9.40609C3.77962 9.40609 3.61678 9.26345 3.61962 9.02953C3.62245 8.79561 3.77113 8.66011 4.03592 8.65725C4.69153 8.65725 5.34715 8.65725 6.00134 8.65725C6.27322 8.65725 6.40915 8.79989 6.40774 9.03524C6.40632 9.27059 6.26614 9.40181 5.99568 9.40466C5.65442 9.40894 5.32449 9.40609 4.9889 9.40609Z" stroke="#484848" stroke-width="0.5" stroke-miterlimit="10"/>
<path d="M14.2383 12.564C13.9367 12.564 13.635 12.564 13.3334 12.564C13.0701 12.564 12.9256 12.4214 12.927 12.1875C12.9285 11.9536 13.0686 11.8166 13.3377 11.8138C13.9475 11.8081 14.5588 11.8081 15.1714 11.8138C15.221 11.8113 15.2706 11.8187 15.3173 11.8356C15.3641 11.8525 15.407 11.8785 15.4437 11.9122C15.4805 11.9458 15.5102 11.9865 15.5313 12.0318C15.5523 12.0771 15.5643 12.1261 15.5665 12.1761C15.567 12.2288 15.5567 12.2811 15.5362 12.3296C15.5158 12.3782 15.4856 12.4219 15.4476 12.4582C15.4096 12.4945 15.3646 12.5225 15.3153 12.5404C15.2661 12.5584 15.2137 12.566 15.1615 12.5626C14.8585 12.5697 14.5484 12.564 14.2383 12.564Z" stroke="#484848" stroke-width="0.5" stroke-miterlimit="10"/>
</svg>
