<svg width="18" height="21" viewBox="0 0 18 21" fill="none" xmlns="http://www.w3.org/2000/svg">
<path d="M1 3.02784L2.93131 2.52722C4.87161 2.02659 6.81643 1.52172 8.74323 1.02534C8.88049 0.991554 9.02465 0.991554 9.1619 1.02534L16.7836 2.9642C16.9637 3.01087 17.0042 3.07875 16.9997 3.24421C16.9997 5.84492 16.9997 8.44563 16.9997 11.0506C16.9725 11.7972 16.7498 12.526 16.3514 13.1719C15.7494 14.2148 14.9914 15.1707 14.1005 16.0102C12.6028 17.4618 10.9595 18.7732 9.19342 19.9261C9.08987 19.9982 9.01334 20.0364 8.88279 19.9515C6.58672 18.4916 4.51967 16.735 2.74223 14.7331C1.98676 13.9114 1.43743 12.9399 1.13506 11.8906C1.05002 11.5441 1.00624 11.1898 1.0045 10.8342C1.0045 8.33108 1.0045 5.82795 1.0045 3.32058L1 3.02784Z" stroke="#484848" stroke-width="1.2" stroke-linecap="square" stroke-linejoin="round"/>
<path d="M14.355 7.0976C14.124 7.00263 13.8624 6.97601 13.6116 7.02195C13.3608 7.0679 13.1352 7.18379 12.9704 7.35128L7.66821 11.6921C7.5926 11.6156 7.53117 11.5471 7.46501 11.4867C6.63802 10.7901 5.81103 10.0935 4.97931 9.40491C4.87441 9.30745 4.74732 9.2292 4.60578 9.17493C4.46425 9.12066 4.31123 9.09151 4.15605 9.08925C4.00087 9.08699 3.84677 9.11167 3.70314 9.16178C3.55952 9.2119 3.42936 9.2864 3.32061 9.38075C3.21381 9.47413 3.13039 9.58502 3.07541 9.7067C3.02044 9.82838 2.99505 9.95831 3.0008 10.0886C3.00654 10.2189 3.0433 10.3468 3.10883 10.4647C3.17437 10.5825 3.26732 10.6877 3.38204 10.774C4.5288 11.7458 5.68186 12.7122 6.84122 13.6732C6.94678 13.7759 7.07685 13.8581 7.22273 13.9145C7.36862 13.9708 7.52694 14 7.68711 14C7.84728 14 8.00561 13.9708 8.15149 13.9145C8.29737 13.8581 8.42744 13.7759 8.533 13.6732L12.8286 10.1579C13.4335 9.6586 14.0478 9.17136 14.6385 8.66399C14.7738 8.55792 14.8763 8.42511 14.9371 8.27729C14.9978 8.12946 15.0149 7.97117 14.9869 7.81638C14.9589 7.66158 14.8866 7.51505 14.7764 7.38969C14.6662 7.26434 14.5215 7.16402 14.355 7.0976Z" fill="#484848"/>
</svg>
