<svg width="23" height="23" viewBox="0 0 23 23" fill="none" xmlns="http://www.w3.org/2000/svg">
<path d="M2.43581 17.5239V13.7049C2.43581 13.5673 2.43581 13.5678 2.30125 13.567C1.84409 13.5631 1.40308 13.485 0.989377 13.2813C0.637241 13.1082 0.344444 12.8672 0.15779 12.5156C-0.111884 12.0055 -0.0319293 11.4423 0.367288 11.0009C1.91903 9.28287 3.47058 7.56468 5.02195 5.8463C6.5332 4.17201 8.04473 2.49771 9.55653 0.823425C9.94266 0.395923 10.4285 0.147849 10.9899 0.0476705C11.6058 -0.0619955 12.1984 0.015859 12.7597 0.298814C13.0345 0.440033 13.2802 0.631827 13.4841 0.864166C14.5084 2.00194 15.5338 3.1386 16.5605 4.27414C18.3779 6.28663 20.1952 8.29922 22.0125 10.3119C22.2216 10.5439 22.431 10.7757 22.6407 11.0073C23.1252 11.5445 23.1193 12.287 22.6304 12.8211C22.2936 13.1889 21.8668 13.3873 21.3904 13.4942C21.145 13.5479 20.8941 13.5719 20.643 13.5656C20.5781 13.5656 20.5625 13.584 20.5627 13.6474C20.5642 16.1912 20.5647 18.7349 20.5641 21.2785C20.5641 21.5517 20.5104 21.8129 20.3791 22.0531C20.0479 22.659 19.5331 22.988 18.8469 22.9944C17.4476 23.0075 16.0482 22.9983 14.6489 22.9983C14.051 22.9983 13.5885 22.5356 13.5883 21.9348C13.5883 20.6752 13.5883 19.4155 13.5883 18.1557V17.2627C13.5883 16.9418 13.3682 16.7177 13.0467 16.7158C12.679 16.7136 12.3115 16.7158 11.944 16.7158C11.2842 16.7158 10.6244 16.7158 9.96467 16.7158C9.68162 16.7158 9.46906 16.8852 9.42058 17.1464C9.41425 17.1857 9.41155 17.2256 9.4125 17.2655C9.4125 18.82 9.4125 20.3746 9.4125 21.9292C9.4125 22.4444 9.07374 22.8699 8.58008 22.9746C8.51296 22.9889 8.44452 22.9962 8.37588 22.9963C6.96789 22.9974 5.55981 22.9974 4.15164 22.9963C3.69771 22.9946 3.26284 22.8134 2.94158 22.4922C2.62032 22.171 2.43865 21.7357 2.43609 21.281C2.43516 20.0294 2.43507 18.777 2.43581 17.5239ZM14.638 21.9496H18.782C18.8099 21.9496 18.8397 21.9496 18.8684 21.9471C19.0444 21.9367 19.2098 21.8592 19.3306 21.7305C19.4514 21.6018 19.5185 21.4317 19.518 21.2551C19.5134 18.3697 19.512 15.4844 19.5138 12.5993C19.5138 12.5329 19.5294 12.5136 19.5974 12.5156C19.9716 12.5192 20.3457 12.5217 20.7199 12.5156C20.8834 12.5126 21.0465 12.4978 21.2079 12.4712C21.4166 12.4369 21.6175 12.371 21.7824 12.2295C21.9713 12.0671 21.9819 11.8489 21.8142 11.6628L18.6525 8.15877C16.6735 5.96712 14.6948 3.77501 12.7163 1.58244C12.433 1.26767 12.0903 1.08517 11.6724 1.0489C11.1531 1.00341 10.6915 1.13847 10.3313 1.53388C9.75823 2.16258 9.18908 2.79574 8.61992 3.42722C7.3815 4.79847 6.14336 6.1699 4.9055 7.54151L1.183 11.6656C1.01863 11.8475 1.03172 12.068 1.21615 12.2279C1.24812 12.2551 1.28232 12.2797 1.31839 12.3012C1.51376 12.4171 1.73412 12.4841 1.96082 12.4966C2.24108 12.5144 2.52245 12.5128 2.80355 12.5164C3.01165 12.5192 3.21976 12.5178 3.42786 12.5164C3.46993 12.5164 3.49055 12.5273 3.48581 12.5722C3.4847 12.5921 3.4847 12.612 3.48581 12.6319C3.48581 15.5061 3.48581 18.3803 3.48581 21.2545C3.48452 21.3098 3.48901 21.3651 3.49918 21.4194C3.56799 21.7398 3.85076 21.9496 4.21042 21.9496C5.56956 21.9496 6.92898 21.9496 8.28868 21.9496H8.36362V21.8547C8.36362 20.3107 8.36362 18.7672 8.36362 17.2242C8.36362 16.3742 9.07068 15.668 9.91842 15.6682H13.0665C13.2729 15.6677 13.4774 15.708 13.6683 15.787C13.8591 15.8659 14.0324 15.9819 14.1783 16.1282C14.3243 16.2745 14.4398 16.4482 14.5184 16.6394C14.597 16.8307 14.6371 17.0356 14.6363 17.2423C14.6363 18.7793 14.6363 20.3163 14.6363 21.8531L14.638 21.9496Z" fill="#484848"/>
</svg>
