<svg xmlns="http://www.w3.org/2000/svg" xmlns:xlink="http://www.w3.org/1999/xlink" version="1.1" x="0px" y="0px" viewBox="0 0 91 91" enable-background="new 0 0 91 91" xml:space="preserve"><g><g><g><path fill="#65B9C6" d="M88.64,32.29c-0.037-0.051-0.086-0.1-0.125-0.152c-4.043-4.963-10.848-7.494-16.795-9.221     c-7.18-2.09-14.664-3.111-22.123-3.426c-7.496-0.316-15.054,0.088-22.451,1.361c-6.828,1.182-13.896,3.047-19.832,6.738     c-2.617,1.627-5.213,3.779-6.486,6.678c-0.58,1.322-0.768,2.758-0.617,4.17c0.24,1.727,0.328,3.539,0.895,5.203     c1.814,5.355,7.709,9.941,12.598,12.045c6.15,2.656,12.775,4.256,19.502,5.076v11.654l24.859-20.045l-24.859-20.02v14.199     c-0.037,0-0.074-0.012-0.1-0.012c-3.49-0.605-6.943-1.461-10.217-2.773c-2.848-1.133-5.795-2.631-7.801-4.998     c-0.541-0.658-1.244-1.426-0.955-2.283c0.111-0.365,0.275-0.73,0.467-1.07c0.719-1.322,1.799-2.406,2.998-3.313     c4.838-3.729,11.451-5.229,17.35-6.074c6.928-0.98,14.095-0.957,21.013,0.113c4.473,0.682,8.959,1.766,13.076,3.68     c2.457,1.145,4.814,2.619,6.553,4.723c0.654,0.857,1.762,2.334,1.158,3.393c-0.742,1.295-1.877,2.342-3.074,3.211     c-1.939,1.4-4.117,2.459-6.412,3.289c0,0-3.658,1.467-3.797,8.605c-0.117,6.02,3.797,6.271,3.797,6.271     c5.582-1.271,10.51-3.432,14.963-6.832c8.615-6.578,8.357-12.203,8.535-13.363c0.35-2.369-0.48-4.646-1.879-6.523     C88.792,32.493,88.718,32.392,88.64,32.29z"/></g></g></g></svg>